<svg width="120" height="40" viewBox="0 0 120 40" fill="none" xmlns="http://www.w3.org/2000/svg">
<rect width="120" height="40" rx="10" fill="#E7E7E7"/>
<path d="M80.5176 17.3615V19.5475H79.1595V20.981H80.5176V25.8519C80.5176 27.5151 81.2634 28.1804 83.1395 28.1804C83.4692 28.1804 83.7832 28.1408 84.058 28.0933V26.6756C83.8225 26.6994 83.6733 26.7152 83.4143 26.7152C82.5743 26.7152 82.2054 26.3192 82.2054 25.4163V20.981H84.058V19.5475H82.2054V17.3615H80.5176Z" fill="#A4A4A4"/>
<path d="M88.8374 28.2992C91.3338 28.2992 92.8645 26.6122 92.8645 23.8164C92.8645 21.0365 91.3259 19.3415 88.8374 19.3415C86.3411 19.3415 84.8025 21.0365 84.8025 23.8164C84.8025 26.6122 86.3333 28.2992 88.8374 28.2992ZM88.8374 26.7865C87.3695 26.7865 86.5452 25.7014 86.5452 23.8164C86.5452 21.9473 87.3695 20.8543 88.8374 20.8543C90.2976 20.8543 91.1297 21.9473 91.1297 23.8164C91.1297 25.6935 90.2976 26.7865 88.8374 26.7865Z" fill="#A4A4A4"/>
<path d="M94.1742 28.1329H95.862V23.0402C95.862 21.8285 96.7648 21.0127 98.0443 21.0127C98.3426 21.0127 98.845 21.0681 98.9863 21.1157V19.4366C98.8058 19.3891 98.4839 19.3653 98.2327 19.3653C97.118 19.3653 96.1681 19.9831 95.9248 20.8305H95.7992V19.5079H94.1742V28.1329Z" fill="#A4A4A4"/>
<path d="M103.177 20.7909C104.425 20.7909 105.242 21.6701 105.281 23.0244H100.963C101.057 21.678 101.929 20.7909 103.177 20.7909ZM105.273 25.8044C104.959 26.4776 104.26 26.8498 103.24 26.8498C101.89 26.8498 101.018 25.8915 100.963 24.3788V24.2837H107V23.6897C107 20.981 105.563 19.3415 103.185 19.3415C100.775 19.3415 99.2441 21.0919 99.2441 23.8481C99.2441 26.6043 100.743 28.2992 103.193 28.2992C105.147 28.2992 106.513 27.3488 106.898 25.8044H105.273Z" fill="#A4A4A4"/>
<path d="M69.4495 24.9478C69.5797 27.0657 71.329 28.4202 73.9326 28.4202C76.7153 28.4202 78.4565 27.0001 78.4565 24.7344C78.4565 22.953 77.4638 21.9679 75.0555 21.4015L73.7618 21.0814C72.2321 20.7202 71.6138 20.2358 71.6138 19.3903C71.6138 18.3231 72.5739 17.6254 74.014 17.6254C75.3809 17.6254 76.3247 18.3067 76.4956 19.3985H78.2693C78.1635 17.4037 76.4224 16 74.0384 16C71.4754 16 69.7668 17.4037 69.7668 19.5135C69.7668 21.2538 70.735 22.2881 72.8586 22.7888L74.372 23.1582C75.926 23.5277 76.6095 24.0694 76.6095 24.9724C76.6095 26.0232 75.5355 26.7866 74.0709 26.7866C72.5006 26.7866 71.4104 26.0724 71.2558 24.9478H69.4495Z" fill="#A4A4A4"/>
<path d="M51.966 19.3653C50.8041 19.3653 49.7993 19.9514 49.2812 20.9335H49.1556V19.5079H47.5307V31H49.2184V26.8261H49.3519C49.7993 27.7369 50.7649 28.2755 51.9817 28.2755C54.1404 28.2755 55.5142 26.5568 55.5142 23.8164C55.5142 21.0761 54.1404 19.3653 51.966 19.3653ZM51.4871 26.7469C50.0741 26.7469 49.187 25.6222 49.187 23.8243C49.187 22.0185 50.0741 20.8939 51.4949 20.8939C52.9237 20.8939 53.7793 21.9948 53.7793 23.8164C53.7793 25.646 52.9237 26.7469 51.4871 26.7469Z" fill="#A4A4A4"/>
<path d="M61.42 19.3653C60.2581 19.3653 59.2533 19.9514 58.7352 20.9335H58.6096V19.5079H56.9847V31H58.6724V26.8261H58.8059C59.2533 27.7369 60.2189 28.2755 61.4357 28.2755C63.5944 28.2755 64.9682 26.5568 64.9682 23.8164C64.9682 21.0761 63.5944 19.3653 61.42 19.3653ZM60.9411 26.7469C59.5281 26.7469 58.641 25.6222 58.641 23.8243C58.641 22.0185 59.5281 20.8939 60.949 20.8939C62.3777 20.8939 63.2333 21.9948 63.2333 23.8164C63.2333 25.646 62.3777 26.7469 60.9411 26.7469Z" fill="#A4A4A4"/>
<path d="M44.5025 28.1329H46.439L42.1999 16.2873H40.2391L36 28.1329H37.8714L38.9535 24.9889H43.4285L44.5025 28.1329ZM41.1259 18.4381H41.2642L42.9647 23.4456H39.4173L41.1259 18.4381Z" fill="#A4A4A4"/>
<path d="M37 9.23127V13.9316H38.9387C40.5388 13.9316 41.4654 13.0684 41.4654 11.5668C41.4654 10.0879 40.5314 9.23127 38.9387 9.23127H37ZM37.8335 9.89577H38.8457C39.9583 9.89577 40.617 10.5147 40.617 11.5765C40.617 12.6547 39.9695 13.2671 38.8457 13.2671H37.8335V9.89577Z" fill="#A4A4A4"/>
<path d="M44.3032 14C45.4865 14 46.2121 13.3062 46.2121 12.1564C46.2121 11.013 45.4828 10.316 44.3032 10.316C43.1198 10.316 42.3905 11.013 42.3905 12.1564C42.3905 13.3062 43.1161 14 44.3032 14ZM44.3032 13.3779C43.6073 13.3779 43.2166 12.9316 43.2166 12.1564C43.2166 11.3876 43.6073 10.9381 44.3032 10.9381C44.9953 10.9381 45.3898 11.3876 45.3898 12.1564C45.3898 12.9283 44.9953 13.3779 44.3032 13.3779Z" fill="#A4A4A4"/>
<path d="M52.3915 10.3844H51.5915L50.8696 13.0912H50.8063L49.9728 10.3844H49.2062L48.3727 13.0912H48.3131L47.5875 10.3844H46.7763L47.8926 13.9316H48.715L49.5486 11.3192H49.6118L50.4491 13.9316H51.2789L52.3915 10.3844Z" fill="#A4A4A4"/>
<path d="M53.3129 13.9316H54.1129V11.8567C54.1129 11.3029 54.4888 10.9577 55.0805 10.9577C55.6721 10.9577 55.9549 11.241 55.9549 11.8111V13.9316H56.755V11.6352C56.755 10.7915 56.2563 10.316 55.3521 10.316C54.7418 10.316 54.3399 10.5537 54.1427 10.9479H54.0832V10.3844H53.3129V13.9316Z" fill="#A4A4A4"/>
<path d="M58.015 13.9316H58.815V9H58.015V13.9316Z" fill="#A4A4A4"/>
<path d="M61.824 14C63.0073 14 63.7329 13.3062 63.7329 12.1564C63.7329 11.013 63.0036 10.316 61.824 10.316C60.6406 10.316 59.9113 11.013 59.9113 12.1564C59.9113 13.3062 60.6369 14 61.824 14ZM61.824 13.3779C61.1281 13.3779 60.7374 12.9316 60.7374 12.1564C60.7374 11.3876 61.1281 10.9381 61.824 10.9381C62.5161 10.9381 62.9105 11.3876 62.9105 12.1564C62.9105 12.9283 62.5161 13.3779 61.824 13.3779Z" fill="#A4A4A4"/>
<path d="M66.1167 13.4007C65.6813 13.4007 65.365 13.215 65.365 12.8958C65.365 12.5831 65.6181 12.4169 66.1763 12.3844L67.1661 12.329V12.6254C67.1661 13.0651 66.7195 13.4007 66.1167 13.4007ZM65.912 13.9902C66.4442 13.9902 66.887 13.7883 67.1289 13.4332H67.1921V13.9316H67.9624V11.5081C67.9624 10.759 67.3894 10.316 66.3735 10.316C65.4543 10.316 64.7994 10.7068 64.7176 11.316H65.4916C65.5809 11.0651 65.8897 10.9218 66.3363 10.9218C66.8833 10.9218 67.1661 11.1336 67.1661 11.5081V11.8143L66.0683 11.8697C65.1046 11.9218 64.5613 12.2899 64.5613 12.9283C64.5613 13.5765 65.1306 13.9902 65.912 13.9902Z" fill="#A4A4A4"/>
<path d="M70.6774 13.9902C71.2356 13.9902 71.7082 13.759 71.95 13.3713H72.0133V13.9316H72.7799V9H71.9798V10.9479H71.9203C71.7007 10.557 71.2318 10.3257 70.6774 10.3257C69.6541 10.3257 68.9954 11.0358 68.9954 12.1564C68.9954 13.2801 69.6466 13.9902 70.6774 13.9902ZM70.9044 10.9544C71.5742 10.9544 71.9947 11.4202 71.9947 12.1596C71.9947 12.9023 71.5779 13.3616 70.9044 13.3616C70.2271 13.3616 69.8215 12.9088 69.8215 12.1564C69.8215 11.4104 70.2308 10.9544 70.9044 10.9544Z" fill="#A4A4A4"/>
<path d="M77.9679 14C79.1513 14 79.8769 13.3062 79.8769 12.1564C79.8769 11.013 79.1475 10.316 77.9679 10.316C76.7846 10.316 76.0552 11.013 76.0552 12.1564C76.0552 13.3062 76.7809 14 77.9679 14ZM77.9679 13.3779C77.2721 13.3779 76.8813 12.9316 76.8813 12.1564C76.8813 11.3876 77.2721 10.9381 77.9679 10.9381C78.6601 10.9381 79.0545 11.3876 79.0545 12.1564C79.0545 12.9283 78.6601 13.3779 77.9679 13.3779Z" fill="#A4A4A4"/>
<path d="M80.9359 13.9316H81.736V11.8567C81.736 11.3029 82.1118 10.9577 82.7035 10.9577C83.2952 10.9577 83.578 11.241 83.578 11.8111V13.9316H84.378V11.6352C84.378 10.7915 83.8794 10.316 82.9751 10.316C82.3649 10.316 81.963 10.5537 81.7658 10.9479H81.7062V10.3844H80.9359V13.9316Z" fill="#A4A4A4"/>
<path d="M88.0627 9.50163V10.4007H87.419V10.9902H88.0627V12.9935C88.0627 13.6775 88.4162 13.9511 89.3056 13.9511C89.4619 13.9511 89.6107 13.9349 89.741 13.9153V13.3322C89.6293 13.342 89.5586 13.3485 89.4358 13.3485C89.0377 13.3485 88.8628 13.1857 88.8628 12.8143V10.9902H89.741V10.4007H88.8628V9.50163H88.0627Z" fill="#A4A4A4"/>
<path d="M90.8149 13.9316H91.615V11.8599C91.615 11.3225 91.9796 10.9609 92.6346 10.9609C93.2002 10.9609 93.5016 11.2476 93.5016 11.8143V13.9316H94.3016V11.6417C94.3016 10.798 93.7695 10.3192 92.9062 10.3192C92.2959 10.3192 91.868 10.557 91.6708 10.9544H91.6075V9H90.8149V13.9316Z" fill="#A4A4A4"/>
<path d="M97.1878 10.9121C97.7795 10.9121 98.1665 11.2736 98.1851 11.8306H96.1384C96.1831 11.2769 96.5961 10.9121 97.1878 10.9121ZM98.1813 12.9739C98.0325 13.2508 97.7013 13.4039 97.2176 13.4039C96.5775 13.4039 96.1645 13.0098 96.1384 12.3876V12.3485H99V12.1042C99 10.9902 98.319 10.316 97.1915 10.316C96.0491 10.316 95.3235 11.0358 95.3235 12.1694C95.3235 13.3029 96.0342 14 97.1952 14C98.1218 14 98.7693 13.6091 98.9516 12.9739H98.1813Z" fill="#A4A4A4"/>
<path d="M26.1988 19.1677C26.2196 17.5466 27.0859 16.0127 28.4601 15.1636C27.5931 13.9193 26.1411 13.1303 24.6303 13.0828C23.019 12.9128 21.4569 14.0518 20.6358 14.0518C19.7988 14.0518 18.5346 13.0997 17.1733 13.1278C15.3988 13.1855 13.7446 14.1994 12.8812 15.7585C11.0255 18.9876 12.4097 23.7333 14.1874 26.3435C15.0768 27.6216 16.1163 29.0493 17.4764 28.9987C18.8074 28.9432 19.3044 28.1457 20.911 28.1457C22.5027 28.1457 22.9691 28.9987 24.3568 28.9665C25.785 28.9432 26.6848 27.6827 27.543 26.3925C28.182 25.4818 28.6738 24.4752 29 23.4102C27.3216 22.6967 26.2008 20.9992 26.1988 19.1677Z" fill="#A4A4A4"/>
<path d="M23.5777 11.3662C24.3564 10.4267 24.74 9.21919 24.6471 8C23.4574 8.12558 22.3585 8.69703 21.5692 9.60047C20.7975 10.4832 20.3959 11.6695 20.4718 12.8421C21.6619 12.8544 22.8319 12.2985 23.5777 11.3662Z" fill="#A4A4A4"/>
</svg>
